:FULLY-SPECIFIED
:FORCE-ALL-JOINTS-BE-3DOF
:DEGREES
815
root 1.96709 16.6959 22.5574 4.79576 1.98098 -6.37772
lfemur -39.4941 0.631722 -0.63497
ltibia 23.193 -0 0
lfoot -9.40058 6.57289 0.050394
ltoes 15.479 -0 0
rfemur 0.688918 4.66527 21.7272
rtibia 23.0676 -0 0
rfoot -22.2813 -10.3996 -0.00597273
rtoes -22.3932 0 0
lowerback 0.94945 5.91744 5.55535
upperback -0.0992067 7.94927 -0.347136
thorax 0.168048 3.9779 -3.43356
lowerneck -5.92334 -1.70848 2.87044
upperneck -0.794661 -2.47401 1.37483
head 0.71547 -1.21835 -0.10965
lclavicle -0 0 0
lhumerus -53.2677 -7.18759 91.6608
lradius 54.2515 -0 0
lwrist 19.7171 0 0
lhand -10.9563 5.05159 0.00587281
lfingers 0 -0 0
lthumb 15.0615 34.4685 0.0018633
rclavicle -0 0 0
rhumerus -30.9206 45.4618 -111.348
rradius 67.6917 -0 0
rwrist -0.980298 0 0
rhand -11.2063 -25.2663 0.0371665
rfingers 0 -0 0
rthumb 14.8206 -54.699 0.040019
816
root 2.0025 16.6717 22.7237 4.74849 0.709537 -6.61902
lfemur -38.749 0.362201 0.253317
ltibia 21.9231 -0 0
lfoot -9.05581 8.24883 0.0604818
ltoes 16.1908 -0 0
rfemur 1.71648 5.03196 21.8104
rtibia 22.2375 -0 0
rfoot -22.1007 -10.7787 -0.00716734
rtoes -23.1063 0 0
lowerback 0.763277 6.10476 5.63729
upperback -0.142813 8.18933 -0.276908
thorax 0.251642 4.09913 -3.38006
lowerneck -5.83959 -1.65617 2.96152
upperneck -0.588594 -2.41232 1.36699
head 0.765352 -1.18501 -0.126376
lclavicle -0 0 0
lhumerus -53.2897 -6.98063 91.4282
lradius 53.8115 -0 0
lwrist 19.4645 0 0
lhand -10.1974 5.14027 0.00704758
lfingers 0 -0 0
lthumb 15.7923 34.4977 0.00223602
rclavicle -0 0 0
rhumerus -30.6488 45.4059 -110.771
rradius 67.5522 -0 0
rwrist -1.27968 0 0
rhand -10.3994 -24.7384 0.0446019
rfingers 0 -0 0
rthumb 15.5976 -54.1087 0.0480252
817
root 2.03792 16.6475 22.89 4.70659 -0.562093 -6.85926
lfemur -38.0082 0.0811853 1.13801
ltibia 20.6533 -0 0
lfoot -8.71089 9.92481 0.0604818
ltoes 16.9025 -0 0
rfemur 2.74518 5.39711 21.9002
rtibia 21.4073 -0 0
rfoot -21.9202 -11.1578 -0.00716734
rtoes -23.8195 0 0
lowerback 0.577308 6.29235 5.71864
upperback -0.186148 8.42944 -0.206822
thorax 0.335363 4.22028 -3.32638
lowerneck -5.75577 -1.60399 3.05267
upperneck -0.382545 -2.35061 1.35938
head 0.815224 -1.15166 -0.143072
lclavicle -0 0 0
lhumerus -53.3126 -6.77376 91.1956
lradius 53.3714 -0 0
lwrist 19.2119 0 0
lhand -9.43844 5.22897 0.00704758
lfingers 0 -0 0
lthumb 16.5231 34.527 0.00223602
rclavicle -0 0 0
rhumerus -30.378 45.3481 -110.194
rradius 67.4127 -0 0
rwrist -1.57907 0 0
rhand -9.59251 -24.2104 0.0446019
rfingers 0 -0 0
rthumb 16.3746 -53.5183 0.0480252
818
root 2.07333 16.6233 23.0563 4.67 -1.83389 -7.09868
lfemur -37.2718 -0.211211 2.019
ltibia 19.3834 -0 0
lfoot -8.36612 11.6007 0.050394
ltoes 17.6143 -0 0
rfemur 3.77509 5.76058 21.9967
rtibia 20.5772 -0 0
rfoot -21.7396 -11.5369 -0.00597273
rtoes -24.5326 0 0
lowerback 0.391538 6.48019 5.79942
upperback -0.229213 8.66961 -0.136876
thorax 0.419211 4.34135 -3.27252
lowerneck -5.67186 -1.55195 3.14389
upperneck -0.176513 -2.28887 1.35198
head 0.865085 -1.11829 -0.159739
lclavicle -0 0 0
lhumerus -53.3363 -6.56699 90.9631
lradius 52.9314 -0 0
lwrist 18.9593 0 0
lhand -8.6795 5.31765 0.00587281
lfingers 0 -0 0
lthumb 17.2539 34.5562 0.0018633
rclavicle -0 0 0
rhumerus -30.1083 45.2883 -109.619
rradius 67.2732 -0 0
rwrist -1.87846 0 0
rhand -8.78562 -23.6825 0.0371665
rfingers 0 -0 0
rthumb 17.1516 -52.928 0.040019
819
root 2.10875 16.599 23.2226 4.63869 -3.10582 -7.33751
lfemur -36.54 -0.514872 2.89619
ltibia 18.1135 -0 0
lfoot -8.02179 13.2766 0.0302274
ltoes 18.326 -0 0
rfemur 4.8063 6.12227 22.0998
rtibia 19.7471 -0 0
rfoot -21.5591 -11.916 -0.00358358
rtoes -25.2458 0 0
lowerback 0.205966 6.6683 5.8796
upperback -0.27201 8.90983 -0.0670665
thorax 0.503186 4.46235 -3.21847
lowerneck -5.58788 -1.50004 3.23519
upperneck 0.029502 -2.2271 1.34481
head 0.914935 -1.08491 -0.176377
lclavicle -0 0 0
lhumerus -53.3608 -6.36031 90.7305
lradius 52.4913 -0 0
lwrist 18.7068 0 0
lhand -7.92056 5.40631 0.00352348
lfingers 0 -0 0
lthumb 17.9846 34.5854 0.00111792
rclavicle -0 0 0
rhumerus -29.8398 45.2266 -109.044
rradius 67.1336 -0 0
rwrist -2.17784 0 0
rhand -7.97884 -23.1547 0.0222978
rfingers 0 -0 0
rthumb 17.9285 -52.3379 0.0240091
820
root 2.14416 16.5748 23.3889 4.61266 -4.37788 352.424
lfemur -35.8129 -0.829675 3.76948
ltibia 16.8436 0 0
lfoot -7.6782 14.9523 0
ltoes 19.0378 0 0
rfemur 5.83887 6.48206 22.2095
rtibia 18.917 0 0
rfoot -21.3786 -12.2951 0
rtoes -25.9589 0 0
lowerback 0.0205861 6.85666 5.95921
upperback -0.314538 9.1501 0.00260752
thorax 0.58729 4.58326 -3.16423
lowerneck -5.50381 -1.44827 3.32656
upperneck 0.235501 -2.16531 1.33786
head 0.964776 -1.05151 -0.192986
lclavicle -2.48481e-16 0 0
lhumerus -53.3862 -6.15374 90.498
lradius 52.0513 0 0
lwrist 18.4542 0 0
lhand -7.16163 5.49493 0
lfingers 7.12502 0 0
lthumb 18.7154 34.6146 0
rclavicle -2.48481e-16 0 0
rhumerus -29.5725 45.1631 -108.471
rradius 66.9941 0 0
rwrist -2.47723 0 0
rhand -7.17223 -22.6272 0
rfingers 7.12502 0 0
rthumb 18.7052 -771.748 0
